<svg xmlns="http://www.w3.org/2000/svg" width="25" height="24" fill="none"><g fill="#363331" clip-path="url(#a)"><path d="M19.076 13.453c-.66-3.323 2.494-5.271 2.494-5.271s-1.229-1.778-3.294-2.235c-2.064-.459-3.097.114-4.128.544-1.032.43-1.547.43-1.547.43-1.489 0-2.578-1.577-5.415-.859-1.955.493-4.013 2.75-4.385 5.443-.371 2.695.431 6.132 1.978 8.797 1.547 2.666 3.123 3.668 4.241 3.697 1.119.028 2.235-.801 3.581-1.003 1.347-.2 2.176.488 3.498.86 1.316.37 1.777.027 3.293-1.263 1.52-1.289 2.897-4.988 2.897-4.988s-2.553-.828-3.213-4.152ZM16.153 3.797c1.463-1.49.968-3.797.968-3.797s-2.054.36-3.43 1.792c-1.375 1.433-1.148 3.695-1.148 3.695s2.148-.2 3.61-1.69Z"/></g><defs><clipPath id="a"><path fill="#fff" d="M.5 0h24v24H.5z"/></clipPath></defs></svg>