<svg xmlns="http://www.w3.org/2000/svg" width="65" height="64" fill="none"><circle cx="32.5" cy="32" r="32" fill="#363331"/><path fill="#fff" fill-rule="evenodd" d="M15.082 50.33c-1.437-.72-2.06-1.583-2.06-2.33 0-.747.623-1.61 2.06-2.33 1.395-.697 3.371-1.148 5.592-1.148 2.22 0 4.197.451 5.592 1.149 1.436.718 2.06 1.582 2.06 2.33 0 .746-.624 1.61-2.06 2.328-1.395.698-3.371 1.15-5.592 1.15-2.22 0-4.197-.452-5.592-1.15Zm-.622 1.244c1.626.813 3.824 1.296 6.214 1.296 2.39 0 4.588-.483 6.214-1.296 1.584-.793 2.83-2.016 2.83-3.574 0-1.558-1.246-2.781-2.83-3.574-1.626-.813-3.824-1.296-6.214-1.296-2.39 0-4.588.483-6.214 1.296-1.585.793-2.83 2.016-2.83 3.574 0 1.558 1.245 2.781 2.83 3.574Z" clip-rule="evenodd"/><path fill="#F7C100" fill-rule="evenodd" d="M38.734 50.33c-1.436-.72-2.06-1.583-2.06-2.33 0-.747.624-1.61 2.06-2.33 1.395-.697 3.371-1.148 5.592-1.148 2.22 0 4.197.451 5.592 1.149 1.437.718 2.06 1.582 2.06 2.33 0 .746-.623 1.61-2.06 2.328-1.395.698-3.371 1.15-5.592 1.15-2.22 0-4.197-.452-5.592-1.15Zm-.622 1.244c1.626.813 3.824 1.296 6.214 1.296 2.39 0 4.588-.483 6.214-1.296 1.585-.793 2.83-2.016 2.83-3.574 0-1.558-1.245-2.781-2.83-3.574-1.626-.813-3.824-1.296-6.214-1.296-2.39 0-4.588.483-6.214 1.296-1.584.793-2.83 2.016-2.83 3.574 0 1.558 1.246 2.781 2.83 3.574Z" clip-rule="evenodd"/><path fill="#fff" fill-rule="evenodd" d="M35.755 23.293a.696.696 0 0 0 .553-.528L39.438 9.2a.696.696 0 0 0-1.266-.527l-5.913 9.391a.696.696 0 0 0 .01.757l2.783 4.174c.154.23.43.348.703.298Z" clip-rule="evenodd"/><path fill="#fff" d="M26.587 45.217c.373.091 3.02 3.32 3.11 2.947l3.43-14.108a.696.696 0 0 0 0-.333l-1.343-5.37-.004-.013-1.498-5.564a.695.695 0 0 0-1.24-.221L12.802 45.51c-.222.314 5.123-1.559 5.437-1.337.314.222 3.604-.034 3.826-.348-.09.373 4.149 1.3 4.522 1.391Z"/><path fill="#F7C100" fill-rule="evenodd" d="M38.413 44.87c.373-.094 4.963-.671 4.87-1.044.218.316 3.857.566 4.173.348.317-.218 4.965 1.66 4.747 1.344l-25.39-36.87a.696.696 0 0 0-1.249.564l9.74 38.957c.093.372 2.736-3.206 3.109-3.3Z" clip-rule="evenodd"/></svg>