<svg xmlns="http://www.w3.org/2000/svg" width="56" height="56" fill="none"><path fill="#F7C100" d="M50.353 37.543 47.81 19.67c-.653-4.597-4.597-8.003-9.24-8.003H17.43c-4.643 0-8.587 3.406-9.24 8.003L5.647 37.543c-.514 3.594 2.263 6.79 5.88 6.79 1.586 0 3.08-.63 4.2-1.75L21 37.333h14l5.25 5.25a5.956 5.956 0 0 0 4.2 1.75c3.64 0 6.417-3.196 5.903-6.79Zm-4.9 1.68c-.186.21-.49.444-.98.444-.35 0-.676-.14-.91-.374l-6.626-6.626H19.063l-6.626 6.626c-.234.234-.56.374-.91.374-.49 0-.794-.234-.98-.444a1.215 1.215 0 0 1-.304-1.026l2.544-17.874c.35-2.263 2.333-3.99 4.643-3.99h21.14c2.31 0 4.293 1.727 4.62 4.014l2.543 17.873c.07.467-.116.793-.28 1.003Z"/><path fill="#F7C100" d="M21 18.667h-2.333v4.666H14v2.334h4.667v4.666H21v-4.666h4.667v-2.334H21v-4.666ZM39.667 30.333a2.333 2.333 0 1 0 0-4.666 2.333 2.333 0 0 0 0 4.666ZM35 23.333a2.333 2.333 0 1 0 0-4.666 2.333 2.333 0 0 0 0 4.666Z"/></svg>