<svg xmlns="http://www.w3.org/2000/svg" width="25" height="24" fill="none"><g fill="#363331" clip-path="url(#a)"><path d="M3.756 7.826h-.061c-.788 0-1.43.644-1.43 1.43v6.23c0 .789.642 1.431 1.43 1.431h.063c.788 0 1.43-.644 1.43-1.432V9.256a1.437 1.437 0 0 0-1.432-1.43ZM5.873 17.89c0 .723.591 1.313 1.315 1.313h1.405v3.364c0 .79.644 1.433 1.43 1.433h.062c.79 0 1.433-.644 1.433-1.433v-3.364h1.963v3.364c0 .79.647 1.433 1.433 1.433h.06c.79 0 1.432-.644 1.432-1.433v-3.364h1.406c.723 0 1.314-.59 1.314-1.313V8.054H5.873v9.836ZM15.8 2.09 16.918.367a.237.237 0 1 0-.398-.258L15.362 1.89a7.544 7.544 0 0 0-2.861-.556c-1.025 0-1.993.2-2.863.556L8.483.109a.237.237 0 0 0-.33-.07.237.237 0 0 0-.07.328L9.2 2.09C7.187 3.077 5.83 4.937 5.83 7.07c0 .132.008.26.02.389h13.305a4.41 4.41 0 0 0 .018-.389c0-2.133-1.359-3.993-3.372-4.98ZM9.416 5.174a.64.64 0 1 1 0-1.278.64.64 0 1 1 0 1.278Zm6.168 0a.64.64 0 1 1-.002-1.278.64.64 0 0 1 .002 1.278ZM21.304 7.826h-.06c-.788 0-1.432.644-1.432 1.43v6.23c0 .789.645 1.431 1.432 1.431h.061c.79 0 1.43-.644 1.43-1.432V9.256c0-.786-.643-1.43-1.431-1.43Z"/></g><defs><clipPath id="a"><path fill="#fff" d="M.5 0h24v24H.5z"/></clipPath></defs></svg>