<svg xmlns="http://www.w3.org/2000/svg" width="139" height="40" fill="none"><path fill="#070000" d="M137.731 35.387c0 2.132-1.763 3.858-3.943 3.858H4.756c-2.18 0-3.948-1.726-3.948-3.858V4.618c0-2.13 1.769-3.863 3.948-3.863h129.031c2.181 0 3.943 1.732 3.943 3.863l.001 30.769Z"/><path fill="#D7D6D6" d="M133.372.801c2.374 0 4.306 1.884 4.306 4.199v30c0 2.315-1.932 4.199-4.306 4.199H5.167C2.792 39.199.86 37.315.86 35V5C.86 2.685 2.792.801 5.167.801h128.205Zm0-.801H5.167C2.347 0 .038 2.251.038 5v30c0 2.749 2.31 5 5.129 5h128.205c2.819 0 5.128-2.251 5.128-5V5c0-2.749-2.309-5-5.128-5Z"/><path fill="#fff" d="M30.939 19.784c-.03-3.223 2.707-4.791 2.832-4.864-1.55-2.203-3.952-2.504-4.796-2.528-2.018-.207-3.975 1.177-5.002 1.177-1.048 0-2.631-1.157-4.337-1.123-2.194.033-4.248 1.272-5.374 3.196-2.324 3.923-.59 9.688 1.636 12.859 1.114 1.553 2.415 3.287 4.119 3.226 1.667-.067 2.29-1.036 4.3-1.036 1.993 0 2.578 1.036 4.315.997 1.789-.028 2.915-1.56 3.99-3.127 1.287-1.78 1.804-3.533 1.825-3.623-.042-.014-3.474-1.291-3.508-5.154ZM27.657 10.306c.896-1.093 1.51-2.58 1.34-4.089-1.298.056-2.92.875-3.855 1.944-.827.942-1.565 2.486-1.374 3.938 1.457.106 2.953-.717 3.889-1.793ZM50.346 10.009c0 1.177-.362 2.063-1.085 2.658-.67.549-1.622.824-2.854.824a13.57 13.57 0 0 1-1.573-.078V6.982c.572-.09 1.187-.136 1.852-.136 1.174 0 2.06.249 2.656.747.669.563 1.004 1.368 1.004 2.416Zm-1.133.029c0-.763-.207-1.348-.622-1.756-.414-.407-1.02-.611-1.816-.611-.339 0-.627.022-.866.068v4.889c.133.02.375.029.726.029.823 0 1.458-.223 1.905-.67.447-.445.673-1.095.673-1.95ZM56.355 11.037c0 .725-.212 1.319-.636 1.785-.446.479-1.035.718-1.772.718-.71 0-1.275-.23-1.696-.69-.42-.458-.631-1.037-.631-1.735 0-.73.216-1.33.651-1.794.435-.465 1.02-.698 1.756-.698.71 0 1.28.229 1.712.688.41.446.616 1.022.616 1.726Zm-1.114.034c0-.435-.097-.808-.289-1.12-.225-.375-.546-.563-.964-.563-.432 0-.76.188-.985.564-.193.31-.289.69-.289 1.138 0 .435.097.808.289 1.119.232.376.556.564.975.564.41 0 .732-.191.964-.574.199-.317.298-.693.298-1.128ZM64.413 8.719 62.9 13.433h-.985l-.626-2.047a14.995 14.995 0 0 1-.389-1.523h-.02a10.91 10.91 0 0 1-.388 1.523l-.666 2.047h-.996l-1.422-4.714h1.104l.547 2.241c.132.53.241 1.035.328 1.513h.02c.08-.394.212-.896.399-1.503l.686-2.25h.876l.657 2.202c.16.537.288 1.054.388 1.552h.03c.072-.485.182-1.002.328-1.552l.586-2.202h1.056v-.001ZM69.985 13.433H68.91v-2.7c0-.832-.324-1.248-.974-1.248a.98.98 0 0 0-.777.343 1.199 1.199 0 0 0-.298.808v2.796h-1.075v-3.366c0-.414-.013-.863-.039-1.35h.945l.05.738h.03c.125-.23.312-.418.557-.57.291-.175.617-.264.974-.264.451 0 .827.142 1.125.427.371.349.557.87.557 1.562v2.824ZM72.95 13.433h-1.075V6.556h1.074v6.877ZM79.277 11.037c0 .725-.212 1.319-.636 1.785-.446.479-1.036.718-1.772.718-.71 0-1.276-.23-1.696-.69-.42-.458-.63-1.037-.63-1.735 0-.73.215-1.33.65-1.794.435-.465 1.02-.698 1.755-.698.711 0 1.28.229 1.713.688.41.446.616 1.022.616 1.726Zm-1.115.034c0-.435-.097-.808-.289-1.12-.224-.375-.546-.563-.963-.563-.433 0-.76.188-.985.564-.193.31-.289.69-.289 1.138 0 .435.097.808.289 1.119.232.376.556.564.975.564.41 0 .731-.191.963-.574.2-.317.299-.693.299-1.128ZM84.48 13.433h-.966l-.08-.543h-.03c-.33.433-.8.65-1.412.65-.456 0-.825-.143-1.103-.427a1.32 1.32 0 0 1-.379-.96c0-.576.246-1.015.742-1.32.494-.303 1.19-.452 2.085-.445V10.3c0-.621-.334-.931-1.004-.931-.477 0-.898.117-1.26.349l-.22-.688c.45-.271 1.005-.407 1.66-.407 1.263 0 1.897.65 1.897 1.95v1.736c0 .47.023.846.07 1.124Zm-1.116-1.62v-.727c-1.186-.02-1.779.297-1.779.95 0 .246.068.43.206.553a.763.763 0 0 0 .525.184c.236 0 .457-.073.658-.218a.89.89 0 0 0 .39-.742ZM90.587 13.433h-.954l-.05-.757h-.03c-.304.576-.823.864-1.552.864a1.838 1.838 0 0 1-1.453-.67c-.384-.445-.576-1.024-.576-1.735 0-.763.208-1.381.627-1.853.405-.44.901-.66 1.492-.66.649 0 1.103.213 1.362.64h.02V6.556h1.076v5.607c0 .459.012.882.038 1.27Zm-1.114-1.988v-.786c0-.136-.01-.246-.03-.33a1.188 1.188 0 0 0-.388-.635 1.073 1.073 0 0 0-.72-.257c-.4 0-.714.155-.945.466-.228.31-.344.708-.344 1.193 0 .466.11.844.33 1.135.233.31.547.465.94.465.352 0 .634-.13.849-.388.207-.24.308-.527.308-.863ZM99.78 11.037c0 .725-.212 1.319-.637 1.785-.445.479-1.034.718-1.771.718-.709 0-1.274-.23-1.697-.69-.42-.458-.63-1.037-.63-1.735 0-.73.216-1.33.65-1.794.436-.465 1.02-.698 1.758-.698.709 0 1.28.229 1.71.688.41.446.617 1.022.617 1.726Zm-1.114.034c0-.435-.096-.808-.288-1.12-.227-.375-.547-.563-.965-.563-.43 0-.76.188-.986.564-.193.31-.288.69-.288 1.138 0 .435.096.808.288 1.119.233.376.557.564.976.564.41 0 .733-.191.965-.574.198-.317.298-.693.298-1.128ZM105.559 13.433h-1.073v-2.7c0-.832-.324-1.248-.976-1.248a.976.976 0 0 0-.775.343 1.194 1.194 0 0 0-.299.808v2.796h-1.075v-3.366a26.4 26.4 0 0 0-.038-1.35h.943l.05.738h.03c.126-.23.313-.418.557-.57.292-.175.618-.264.975-.264.451 0 .826.142 1.125.427.372.349.556.87.556 1.562v2.824ZM112.793 9.504h-1.183v2.29c0 .582.21.873.626.873.193 0 .353-.016.479-.05l.028.796c-.212.078-.491.117-.835.117-.424 0-.755-.126-.994-.378-.24-.252-.359-.676-.359-1.271V9.504h-.706v-.785h.706v-.864l1.054-.31v1.173h1.183v.786h.001ZM118.484 13.433h-1.076v-2.68c0-.845-.324-1.268-.974-1.268-.498 0-.839.245-1.025.735a1.277 1.277 0 0 0-.051.377v2.835h-1.073V6.556h1.073v2.84h.021c.338-.516.824-.774 1.452-.774.445 0 .814.142 1.106.427.364.355.547.883.547 1.58v2.804ZM124.353 10.853c0 .188-.014.346-.04.475h-3.223c.014.466.168.821.466 1.067.273.22.625.33 1.056.33.477 0 .912-.074 1.303-.223l.169.728c-.459.194-.998.291-1.623.291-.749 0-1.338-.215-1.765-.645-.429-.43-.641-1.007-.641-1.731 0-.711.198-1.303.597-1.775.416-.504.979-.756 1.69-.756.695 0 1.224.252 1.581.756.288.4.43.895.43 1.483Zm-1.025-.271a1.383 1.383 0 0 0-.209-.805c-.186-.291-.47-.437-.855-.437-.351 0-.637.142-.855.427a1.56 1.56 0 0 0-.319.815h2.238ZM55.059 31.504h-2.33l-1.275-3.909h-4.435l-1.215 3.909h-2.268l4.394-13.308h2.714l4.415 13.308Zm-3.99-5.549-1.154-3.475c-.122-.355-.35-1.191-.688-2.507h-.04c-.135.566-.352 1.402-.65 2.507l-1.132 3.475h3.664ZM66.358 26.588c0 1.632-.452 2.922-1.357 3.869-.81.843-1.816 1.264-3.017 1.264-1.296 0-2.228-.454-2.795-1.362h-.04v5.055H56.96V25.067c0-1.026-.027-2.08-.08-3.16h1.923l.122 1.522h.04c.73-1.146 1.837-1.718 3.322-1.718 1.16 0 2.13.447 2.905 1.342.778.896 1.165 2.074 1.165 3.535Zm-2.227.078c0-.934-.216-1.704-.648-2.31-.473-.632-1.108-.948-1.904-.948-.54 0-1.03.176-1.468.523-.439.35-.726.807-.86 1.373a2.73 2.73 0 0 0-.102.65v1.6c0 .698.22 1.287.659 1.768.439.48 1.009.72 1.71.72.824 0 1.465-.31 1.923-.927.46-.62.69-1.435.69-2.45ZM77.678 26.588c0 1.632-.452 2.922-1.358 3.869-.809.843-1.815 1.264-3.016 1.264-1.296 0-2.228-.454-2.794-1.362h-.04v5.055h-2.187V25.067c0-1.026-.028-2.08-.082-3.16h1.924l.122 1.522h.04c.729-1.146 1.836-1.718 3.322-1.718 1.16 0 2.129.447 2.906 1.342.775.896 1.163 2.074 1.163 3.535Zm-2.227.078c0-.934-.217-1.704-.65-2.31-.472-.632-1.105-.948-1.902-.948-.54 0-1.03.176-1.469.523-.439.35-.725.807-.86 1.373-.066.264-.1.48-.1.65v1.6c0 .698.219 1.287.656 1.768.439.48 1.009.72 1.712.72.824 0 1.465-.31 1.924-.927.459-.62.689-1.435.689-2.45ZM90.335 27.772c0 1.132-.403 2.053-1.212 2.764-.89.777-2.128 1.165-3.718 1.165-1.47 0-2.647-.276-3.538-.829l.507-1.777a6.11 6.11 0 0 0 3.16.85c.825 0 1.465-.182 1.926-.544.459-.362.687-.848.687-1.454 0-.54-.189-.995-.567-1.364-.376-.369-1.005-.712-1.883-1.029-2.39-.869-3.584-2.142-3.584-3.816 0-1.094.419-1.991 1.257-2.689.835-.699 1.948-1.048 3.341-1.048 1.242 0 2.274.211 3.098.632l-.547 1.738c-.77-.408-1.639-.612-2.612-.612-.77 0-1.37.185-1.801.553-.364.329-.547.73-.547 1.205 0 .526.208.961.627 1.303.364.316 1.025.658 1.985 1.027 1.175.461 2.037 1 2.592 1.618.553.616.829 1.387.829 2.307ZM97.565 23.508h-2.41v4.659c0 1.185.424 1.777 1.275 1.777.391 0 .715-.033.971-.1l.061 1.62c-.43.157-.998.236-1.7.236-.864 0-1.539-.257-2.026-.77-.485-.514-.73-1.376-.73-2.587v-4.837h-1.435v-1.6h1.436v-1.757l2.147-.632v2.389h2.41v1.602ZM108.439 26.627c0 1.475-.432 2.686-1.296 3.633-.906.975-2.108 1.46-3.606 1.46-1.444 0-2.594-.466-3.451-1.4-.858-.934-1.287-2.113-1.287-3.534 0-1.487.441-2.705 1.327-3.652.883-.948 2.074-1.422 3.573-1.422 1.444 0 2.606.467 3.483 1.402.839.907 1.257 2.078 1.257 3.513Zm-2.268.069c0-.885-.194-1.644-.587-2.277-.458-.766-1.114-1.148-1.963-1.148-.879 0-1.547.383-2.005 1.148-.393.634-.587 1.405-.587 2.317 0 .885.194 1.644.587 2.276.473.766 1.133 1.148 1.986 1.148.834 0 1.49-.39 1.963-1.168.403-.645.606-1.412.606-2.296ZM115.547 23.783a3.886 3.886 0 0 0-.689-.06c-.769 0-1.364.284-1.783.85-.364.5-.546 1.133-.546 1.896v5.035h-2.186l.021-6.574c0-1.106-.028-2.113-.082-3.021h1.904l.08 1.836h.061a3.28 3.28 0 0 1 1.093-1.52 2.688 2.688 0 0 1 1.581-.514c.202 0 .384.014.546.039v2.033ZM125.327 26.252c0 .382-.026.704-.08.967h-6.56c.025.948.342 1.673.951 2.173.553.447 1.268.67 2.146.67.971 0 1.858-.15 2.654-.453l.343 1.48c-.931.396-2.031.593-3.299.593-1.527 0-2.725-.438-3.596-1.313-.87-.875-1.306-2.05-1.306-3.524 0-1.447.405-2.652 1.216-3.613.85-1.026 1.997-1.54 3.441-1.54 1.419 0 2.493.514 3.222 1.54.577.815.868 1.823.868 3.02Zm-2.085-.553c.014-.632-.129-1.178-.425-1.64-.379-.592-.96-.888-1.743-.888-.714 0-1.296.289-1.74.869-.364.46-.581 1.014-.647 1.658h4.555Z"/></svg>