<svg xmlns="http://www.w3.org/2000/svg" width="139" height="40" fill="none"><path fill="#070000" d="M133.833 40H5.628C2.81 40 .5 37.749.5 35V5c0-2.749 2.309-5 5.128-5h128.205c2.82 0 5.129 2.251 5.129 5v30c0 2.749-2.309 5-5.129 5Z"/><path fill="#D7D6D6" d="M133.833.801c2.375 0 4.307 1.884 4.307 4.199v30c0 2.315-1.932 4.199-4.307 4.199H5.628c-2.374 0-4.306-1.884-4.306-4.199V5c0-2.315 1.932-4.199 4.306-4.199h128.205Zm0-.801H5.628C2.81 0 .5 2.251.5 5v30c0 2.749 2.309 5 5.128 5h128.205c2.82 0 5.129-2.251 5.129-5V5c0-2.749-2.309-5-5.129-5Z"/><path fill="#fff" d="M10.433 7.539c-.3.307-.475.786-.475 1.406V31.06c0 .62.174 1.099.475 1.406l.075.068 12.71-12.388v-.292L10.508 7.466l-.075.073ZM28.988 24.278l-4.232-4.132v-.292l4.238-4.131.094.053 5.018 2.784c1.432.79 1.432 2.09 0 2.885l-5.018 2.779-.1.054ZM28.32 24.993l-4.333-4.224-12.784 12.467c.475.487 1.25.546 2.133.058l14.983-8.301ZM28.32 15.007 13.335 6.706c-.882-.483-1.658-.424-2.133.063l12.784 12.462 4.332-4.224Z"/><path fill="#fff" stroke="#fff" stroke-miterlimit="10" stroke-width=".16" d="M49.133 10.244c0 .835-.256 1.504-.761 2.002-.581.591-1.337.889-2.264.889-.886 0-1.643-.303-2.263-.899-.622-.605-.932-1.347-.932-2.236 0-.889.31-1.631.932-2.231.62-.602 1.377-.904 2.263-.904.44 0 .861.089 1.263.254.4.166.725.391.961.668l-.536.528c-.411-.474-.972-.708-1.688-.708-.646 0-1.207.22-1.682.664-.47.445-.707 1.021-.707 1.729 0 .707.236 1.289.707 1.734a2.404 2.404 0 0 0 1.682.664c.686 0 1.263-.226 1.718-.67.3-.293.47-.698.515-1.216h-2.233V9.79h2.98c.035.156.045.308.045.454ZM53.86 7.739h-2.798v1.9h2.523v.722h-2.523v1.9h2.798v.736h-3.59V7.002h3.59v.737ZM57.196 12.997h-.792V7.74h-1.717v-.737h4.227v.737h-1.718v5.258ZM61.973 12.997V7.002h.791v5.995h-.79ZM66.27 12.997h-.785V7.74H63.76v-.737h4.232v.737h-1.722v5.258ZM75.996 12.226c-.606.606-1.358.909-2.254.909-.901 0-1.652-.303-2.259-.909-.605-.605-.906-1.347-.906-2.226s.301-1.621.906-2.226c.607-.607 1.358-.909 2.26-.909.89 0 1.642.302 2.248.914.61.61.912 1.347.912 2.221 0 .879-.302 1.621-.907 2.226Zm-3.927-.502c.457.448 1.012.674 1.673.674.657 0 1.217-.226 1.668-.674.455-.449.686-1.025.686-1.724 0-.699-.23-1.275-.686-1.724-.451-.449-1.011-.674-1.668-.674-.661 0-1.216.225-1.673.674-.455.449-.686 1.025-.686 1.724 0 .699.231 1.275.686 1.724ZM78.014 12.997V7.002h.962l2.99 4.663H82l-.035-1.153v-3.51h.791v5.995h-.825L78.8 8.105h-.035l.035 1.157v3.735h-.786Z"/><path fill="#fff" d="M70.382 21.752c-2.409 0-4.377 1.788-4.377 4.254 0 2.446 1.968 4.253 4.377 4.253 2.414 0 4.382-1.807 4.382-4.253 0-2.466-1.968-4.254-4.382-4.254Zm0 6.832c-1.322 0-2.459-1.064-2.459-2.578 0-1.534 1.137-2.579 2.459-2.579s2.464 1.045 2.464 2.58c0 1.513-1.142 2.577-2.464 2.577Zm-9.55-6.832c-2.414 0-4.377 1.788-4.377 4.254 0 2.446 1.963 4.253 4.377 4.253 2.413 0 4.377-1.807 4.377-4.253 0-2.466-1.964-4.254-4.377-4.254Zm0 6.832c-1.323 0-2.464-1.064-2.464-2.578 0-1.534 1.141-2.579 2.464-2.579 1.322 0 2.459 1.045 2.459 2.58 0 1.513-1.137 2.577-2.459 2.577Zm-11.364-5.528v1.808h4.427c-.13 1.01-.476 1.752-1.007 2.27-.646.625-1.652 1.318-3.42 1.318-2.724 0-4.858-2.143-4.858-4.8 0-2.656 2.134-4.8 4.858-4.8 1.473 0 2.545.562 3.336 1.29l1.306-1.275c-1.106-1.03-2.578-1.82-4.642-1.82-3.736 0-6.876 2.963-6.876 6.605 0 3.643 3.14 6.607 6.876 6.607 2.02 0 3.536-.645 4.728-1.855 1.222-1.192 1.603-2.867 1.603-4.22a5.9 5.9 0 0 0-.1-1.128h-6.231Zm46.47 1.401c-.361-.95-1.473-2.705-3.737-2.705-2.243 0-4.111 1.724-4.111 4.254 0 2.383 1.849 4.253 4.327 4.253a4.35 4.35 0 0 0 3.636-1.885l-1.488-.967c-.496.708-1.171 1.177-2.148 1.177-.97 0-1.667-.434-2.113-1.29l5.834-2.353-.2-.484Zm-5.95 1.417a2.36 2.36 0 0 1 2.279-2.48c.761 0 1.407.37 1.623.902l-3.901 1.578ZM85.246 30h1.918V17.5h-1.918V30Zm-3.14-7.3h-.065c-.43-.498-1.252-.948-2.294-.948-2.184 0-4.182 1.87-4.182 4.268 0 2.384 1.998 4.239 4.182 4.239 1.041 0 1.863-.454 2.294-.967h.064v.61c0 1.627-.89 2.5-2.328 2.5-1.172 0-1.899-.825-2.199-1.518l-1.668.678c.481 1.128 1.754 2.515 3.867 2.515 2.249 0 4.146-1.29 4.146-4.428V22.01h-1.818v.689Zm-2.194 5.884c-1.322 0-2.429-1.08-2.429-2.564 0-1.499 1.107-2.593 2.428-2.593 1.303 0 2.33 1.094 2.33 2.593 0 1.485-1.027 2.564-2.33 2.564ZM104.916 17.5h-4.588V30h1.913v-4.736h2.675c2.124 0 4.207-1.5 4.207-3.883 0-2.382-2.088-3.881-4.207-3.881Zm.05 6.025h-2.725v-4.286h2.725a2.196 2.196 0 0 1 2.243 2.142c0 .968-.815 2.144-2.243 2.144Zm11.824-1.796c-1.382 0-2.819.595-3.41 1.913l1.697.694c.366-.694 1.037-.919 1.748-.919.992 0 1.998.582 2.014 1.608v.131c-.346-.195-1.087-.484-1.999-.484-1.828 0-3.691.982-3.691 2.813 0 1.675 1.497 2.754 3.181 2.754 1.287 0 1.997-.567 2.443-1.225h.066v.966h1.847v-4.795c0-2.216-1.697-3.456-3.896-3.456Zm-.231 6.85c-.625 0-1.497-.303-1.497-1.06 0-.967 1.087-1.338 2.028-1.338.842 0 1.237.181 1.749.42-.15 1.158-1.172 1.978-2.28 1.978Zm10.858-6.577-2.199 5.42h-.065l-2.273-5.42h-2.063l3.415 7.573-1.948 4.214h1.998l5.263-11.787h-2.128ZM110.176 30h1.918V17.5h-1.918V30Z"/></svg>