<svg xmlns="http://www.w3.org/2000/svg" width="17" height="16" fill="none"><g fill="#000" clip-path="url(#a)"><path d="M11.5 0h-6a5 5 0 0 0-5 5v6a5 5 0 0 0 5 5h6a5 5 0 0 0 5-5V5a5 5 0 0 0-5-5ZM15 11c0 1.93-1.57 3.5-3.5 3.5h-6C3.57 14.5 2 12.93 2 11V5c0-1.93 1.57-3.5 3.5-3.5h6C13.43 1.5 15 3.07 15 5v6Z"/><path d="M8.5 4a4 4 0 1 0 0 8 4 4 0 0 0 0-8Zm0 6.5A2.503 2.503 0 0 1 6 8c0-1.379 1.122-2.5 2.5-2.5S11 6.621 11 8c0 1.378-1.122 2.5-2.5 2.5ZM12.8 4.233a.533.533 0 1 0 0-1.066.533.533 0 0 0 0 1.066Z"/></g><defs><clipPath id="a"><path fill="#fff" d="M.5 0h16v16H.5z"/></clipPath></defs></svg>