<svg width="81" height="80" viewBox="0 0 81 80" fill="none" xmlns="http://www.w3.org/2000/svg">
<circle cx="40.5" cy="40" r="40" fill="#363331"/>
<path fill-rule="evenodd" clip-rule="evenodd" d="M18.7278 62.9115C16.9319 62.0136 16.1522 60.934 16.1522 60C16.1522 59.0661 16.9319 57.9865 18.7278 57.0885C20.4717 56.2166 22.9416 55.6522 25.7174 55.6522C28.4932 55.6522 30.9632 56.2166 32.707 57.0885C34.5029 57.9865 35.2826 59.0661 35.2826 60C35.2826 60.934 34.5029 62.0136 32.707 62.9115C30.9632 63.7834 28.4932 64.3478 25.7174 64.3478C22.9416 64.3478 20.4717 63.7834 18.7278 62.9115ZM17.95 64.467C19.9828 65.4834 22.7302 66.087 25.7174 66.087C28.7046 66.087 31.452 65.4834 33.4848 64.467C35.4656 63.4767 37.0218 61.9476 37.0218 60C37.0218 58.0525 35.4656 56.5234 33.4848 55.533C31.452 54.5166 28.7046 53.9131 25.7174 53.9131C22.7302 53.9131 19.9828 54.5166 17.95 55.533C15.9693 56.5234 14.4131 58.0525 14.4131 60C14.4131 61.9476 15.9693 63.4767 17.95 64.467Z" fill="white"/>
<path fill-rule="evenodd" clip-rule="evenodd" d="M48.293 62.9115C46.4971 62.0136 45.7174 60.934 45.7174 60C45.7174 59.0661 46.4971 57.9865 48.293 57.0885C50.0369 56.2166 52.5069 55.6522 55.2826 55.6522C58.0584 55.6522 60.5284 56.2166 62.2722 57.0885C64.0681 57.9865 64.8478 59.0661 64.8478 60C64.8478 60.934 64.0681 62.0136 62.2722 62.9115C60.5284 63.7834 58.0584 64.3478 55.2826 64.3478C52.5069 64.3478 50.0369 63.7834 48.293 62.9115ZM47.5152 64.467C49.548 65.4834 52.2954 66.087 55.2826 66.087C58.2698 66.087 61.0172 65.4834 63.05 64.467C65.0308 63.4767 66.587 61.9476 66.587 60C66.587 58.0525 65.0308 56.5234 63.05 55.533C61.0172 54.5166 58.2698 53.9131 55.2826 53.9131C52.2954 53.9131 49.548 54.5166 47.5152 55.533C45.5345 56.5234 43.9783 58.0525 43.9783 60C43.9783 61.9476 45.5345 63.4767 47.5152 64.467Z" fill="#F7C100"/>
<path fill-rule="evenodd" clip-rule="evenodd" d="M44.5692 29.1163C44.9106 29.0539 45.1823 28.7945 45.2603 28.4564L49.1734 11.4999C49.2688 11.0864 49.0519 10.6645 48.6602 10.5015C48.2685 10.3385 47.8163 10.482 47.5902 10.841L40.1989 22.5801C40.0163 22.8702 40.0211 23.2406 40.2113 23.5258L43.6895 28.7432C43.882 29.032 44.2278 29.1786 44.5692 29.1163Z" fill="white"/>
<path d="M33.1087 56.5217C33.5754 56.6352 36.8837 60.6721 36.9971 60.2054L41.2841 42.5698C41.3173 42.433 41.3169 42.2901 41.2827 42.1535L39.6045 35.4405L39.6005 35.4253L37.7275 28.4696C37.6399 28.1442 37.3721 27.8987 37.0404 27.8396C36.7086 27.7805 36.3726 27.9184 36.1779 28.1935L15.8771 56.8891C15.5997 57.2812 22.2819 54.9401 22.6739 55.2174C23.066 55.4948 27.1792 55.1747 27.4565 54.7826C27.3431 55.2493 32.642 56.4083 33.1087 56.5217Z" fill="white"/>
<path fill-rule="evenodd" clip-rule="evenodd" d="M47.8913 56.0869C48.3572 55.9705 54.0947 55.2485 53.9783 54.7826C54.2506 55.1781 58.8001 55.4898 59.1956 55.2174C59.5912 54.945 65.4016 57.2936 65.1292 56.8981L33.3901 10.8111C33.1516 10.4648 32.6994 10.3387 32.3161 10.5118C31.9329 10.6848 31.7283 11.1073 31.8303 11.5152L44.0042 60.2109C44.1207 60.6768 47.4254 56.2034 47.8913 56.0869Z" fill="#F7C100"/>
</svg>
