<svg xmlns="http://www.w3.org/2000/svg" width="32" height="32" fill="none"><circle cx="16" cy="16" r="16" fill="#363331"/><path fill="#fff" fill-rule="evenodd" d="M7.291 25.164c-.718-.359-1.03-.79-1.03-1.164 0-.374.312-.806 1.03-1.165.698-.349 1.686-.574 2.796-.574 1.11 0 2.098.225 2.796.574.718.36 1.03.791 1.03 1.165 0 .373-.312.805-1.03 1.164-.698.35-1.686.575-2.796.575-1.11 0-2.098-.226-2.796-.575Zm-.311.623c.813.406 1.912.648 3.107.648 1.195 0 2.294-.242 3.107-.648.792-.397 1.415-1.008 1.415-1.787 0-.78-.623-1.39-1.415-1.787-.813-.407-1.912-.648-3.107-.648-1.195 0-2.294.241-3.107.648-.792.396-1.415 1.008-1.415 1.787 0 .779.623 1.39 1.415 1.787Z" clip-rule="evenodd"/><path fill="#F7C100" fill-rule="evenodd" d="M19.117 25.164c-.718-.359-1.03-.79-1.03-1.164 0-.374.312-.806 1.03-1.165.698-.349 1.686-.574 2.796-.574 1.11 0 2.098.225 2.796.574.718.36 1.03.791 1.03 1.165 0 .373-.312.805-1.03 1.164-.698.35-1.686.575-2.796.575-1.11 0-2.098-.226-2.796-.575Zm-.31.623c.812.406 1.911.648 3.106.648 1.195 0 2.294-.242 3.107-.648.792-.397 1.415-1.008 1.415-1.787 0-.78-.623-1.39-1.415-1.787-.813-.407-1.912-.648-3.107-.648-1.195 0-2.294.241-3.107.648-.792.396-1.415 1.008-1.415 1.787 0 .779.623 1.39 1.415 1.787Z" clip-rule="evenodd"/><path fill="#fff" fill-rule="evenodd" d="M17.628 11.647a.348.348 0 0 0 .276-.264L19.47 4.6a.348.348 0 0 0-.633-.263L15.88 9.032a.348.348 0 0 0 .004.378l1.392 2.087a.348.348 0 0 0 .352.15Z" clip-rule="evenodd"/><path fill="#fff" d="M13.043 22.609c.187.045 1.51 1.66 1.556 1.473l1.715-7.054a.347.347 0 0 0 0-.167l-.672-2.685-.002-.006-.749-2.782a.348.348 0 0 0-.62-.11l-8.12 11.478c-.111.157 2.562-.78 2.719-.67.156.112 1.802-.016 1.913-.173-.046.187 2.074.65 2.26.696Z"/><path fill="#F7C100" fill-rule="evenodd" d="M18.956 22.435c.187-.047 2.482-.335 2.435-.522.11.158 1.93.283 2.087.174.159-.109 2.483.83 2.374.672L13.156 4.325a.348.348 0 0 0-.624.281l4.87 19.479c.046.186 1.368-1.603 1.554-1.65Z" clip-rule="evenodd"/></svg>