<svg xmlns="http://www.w3.org/2000/svg" width="56" height="56" fill="none"><path fill="#F7C100" d="M31.166 22.697c-.637 2.76.102 4.902 1.057 6.368 2.77 4.247 11.098 4.103 10.924 9.935.588-5.967-7.492-6.049-9.918-10.478-.82-1.496-1.487-6.288-2.063-5.825ZM35.704 5.493C24.689 8.947 10.76 15.383 8.787 28.019c-1.015 6.749 2.757 11.256 7.034 15.847 1.447 1.565 4.626 3.833 5.212 5.855-.58-2.455-4.545-5.64-6.173-7.623-3.385-4.126-6.035-8.481-4.766-14.09 2.029-8.959 10.423-14.118 18.947-17.252a18.417 18.417 0 0 1 6.663-5.263Z"/><path fill="#F7C100" d="M46.528 37.84c-.09-.287-.195-.581-.317-.884-1.484-4.192-5.799-6.667-8.994-9.752-5.35-5.168-5.5-10.932-5.131-13.998 2.072-5.866 6.289-7.923 5.882-8.54C32.705 6.15 26.569 11.25 25.61 18.869c-.996-.758-1.927-1.704-2.404-2.88a6.59 6.59 0 0 0 1.395 2.444c-.953-.602-1.85-1.368-2.405-2.363.79 1.996 3.526 2.96 3.215 4.197-.546 2.17-3.901 3.54-5.55 4.801-1.943 1.486 1.447 2.566 1.78 4.056.387 1.73-.836 1.614-1.261 2.17-.331.432-.576 1.153.995 1.994-1.298.378-1.518 1.239-1.206 1.93.403.893 1.035.93 1.075 1.005.565 1.078-1.512 2.166-.715 4.03 1.848 4.317 7.55 1.834 10.894 2.735 6.009 1.62 6.17 7.561 6.578 8.346 2.582-6.798-2.645-13.677-4.136-17.582a50.87 50.87 0 0 1-1.787-5.576c.877.804 1.89 1.493 2.914 2.052 3.777 2.06 8.862 3.272 10.846 6.85.172.274.32.544.447.81.643 1.887.568 3.472-.074 5.027-.443.958-1.1 1.962-1.928 3.065a34.981 34.981 0 0 1-1.389 1.604c.355-.375.69-.74 1.002-1.096l-.235.302c.11-.135.217-.269.322-.401 1.215-1.398 2.097-2.682 2.56-4.017.616-1.517.665-2.953-.016-4.53Z"/><path fill="#F7C100" d="M36.21 6.417c-2.535.323-5.05.787-7.512 1.458-2.46.67-4.866 1.548-7.144 2.691-.57.286-1.13.588-1.682.907-.552.32-1.098.652-1.635.997a36.015 36.015 0 0 0-3.111 2.227 27.973 27.973 0 0 0-2.816 2.583 21.621 21.621 0 0 0-2.376 2.984 17.226 17.226 0 0 0-1.736 3.39 14.888 14.888 0 0 0-.879 3.703 14.558 14.558 0 0 0 .109 3.808c.2 1.26.564 2.492 1.06 3.669.996 2.355 2.518 4.479 4.362 6.255.924.888 1.93 1.69 3.004 2.392 1.074.7 2.216 1.3 3.41 1.773a19.118 19.118 0 0 1-3.433-1.737 20.606 20.606 0 0 1-3.04-2.366c-1.872-1.763-3.428-3.881-4.46-6.25a16.072 16.072 0 0 1-1.116-3.7 14.8 14.8 0 0 1-.153-3.87c.119-1.29.411-2.563.853-3.781a17.549 17.549 0 0 1 1.73-3.473 21.986 21.986 0 0 1 2.382-3.061 28.34 28.34 0 0 1 2.828-2.653c.998-.82 2.045-1.58 3.124-2.29.54-.354 1.087-.697 1.642-1.027a33.008 33.008 0 0 1 1.696-.943c2.299-1.192 4.73-2.115 7.214-2.827 2.485-.712 5.026-1.216 7.58-1.576l.098.717Z"/></svg>