<svg xmlns="http://www.w3.org/2000/svg" width="17" height="16" fill="none"><g clip-path="url(#a)"><path fill="#000" d="M15.82 3.56c-.434-.772-.905-.914-1.864-.968-.958-.065-3.367-.092-5.454-.092-2.091 0-4.501.027-5.458.091-.957.055-1.429.196-1.867.969C.73 4.331.5 5.659.5 7.997v.008c0 2.328.23 3.666.677 4.429.438.772.909.912 1.866.977.958.056 3.368.089 5.459.089 2.087 0 4.496-.033 5.455-.088.959-.065 1.43-.205 1.864-.977.451-.763.679-2.101.679-4.429v-.008c0-2.339-.228-3.667-.68-4.438ZM6.5 11V5l5 3-5 3Z"/></g><defs><clipPath id="a"><path fill="#fff" d="M.5 0h16v16H.5z"/></clipPath></defs></svg>